<?xml version="1.0" encoding="UTF-8"?>
<svg id="Layer_1" data-name="Layer 1" xmlns="http://www.w3.org/2000/svg" width="600" height="600" viewBox="0 0 600 600">
  <defs>
    <style>
      .cls-1 {
        fill: none;
      }

      .cls-2 {
        fill: #100040;
      }

      .cls-3 {
        opacity: .35;
      }

      .cls-3, .cls-4 {
        isolation: isolate;
      }

      .cls-5, .cls-4 {
        fill: #fff;
      }

      .cls-6 {
        fill: #d2eeff;
      }

      .cls-7 {
        fill: #8c8c8c;
      }

      .cls-8 {
        fill: #0d0033;
      }

      .cls-9 {
        fill: #b2b2b2;
      }

      .cls-4 {
        opacity: .2;
      }
    </style>
  </defs>
  <g id="breadboard">
    <g>
      <rect id="connector1pin" class="cls-1" x="340.21" y="538.69" width="34.01" height="11.34"/>
      <rect id="connector0pin" class="cls-1" x="226.85" y="538.69" width="34.01" height="11.34"/>
      <rect class="cls-7" x="226.85" y="448.87" width="34.01" height="124.69"/>
      <rect class="cls-7" x="340.21" y="448.87" width="34.01" height="124.69"/>
      <ellipse class="cls-8" cx="300.01" cy="448.87" rx="111.56" ry="78.09"/>
      <rect class="cls-8" x="188.42" y="432.94" width="223.07" height="15.92"/>
      <ellipse class="cls-2" cx="300.01" cy="436.22" rx="111.56" ry="78.11"/>
      <ellipse class="cls-8" cx="300.01" cy="381.93" rx="111.56" ry="78.11"/>
      <rect class="cls-8" x="188.42" y="105.72" width="223.15" height="276.21"/>
      <ellipse class="cls-8" cx="300.01" cy="105.71" rx="111.56" ry="78.11"/>
      <ellipse class="cls-2" cx="300.01" cy="98.79" rx="103.33" ry="72.35"/>
      <ellipse class="cls-9" cx="300.01" cy="94.61" rx="75.74" ry="53.03"/>
      <path class="cls-6" d="M210.21,59.35c-13.67,12.97-21.79,29.02-21.79,46.37v43.14h14.93v-4.15l.17-1.58s0,.8,0-2.11c0-5.23,2.48-8.58,6.68-10.25,4.05-1.61,3.75-30.16,3.75-30.16l-3.74-41.27Z"/>
      <path class="cls-6" d="M224.28,94.61c0-9.42,3.51-18.22,9.64-25.87l-23.7-9.44c-8.59,10.55-13.55,22.73-13.55,35.73s4.96,25.2,13.55,35.74l24.27-9.66c-6.45-7.79-10.2-16.84-10.2-26.5Z"/>
      <rect class="cls-6" x="188.42" y="143.14" width="15.1" height="238.78"/>
      <rect class="cls-6" x="188.42" y="329.74" width="15.1" height="25.69"/>
      <path class="cls-6" d="M188.42,436.21v12.63c0,14.29,5.51,27.67,15.1,39.2v-91.05c-9.59,11.57-15.1,24.94-15.1,39.22Z"/>
      <path class="cls-6" d="M203.52,342.71c-9.59,11.53-15.1,24.92-15.1,39.22s5.51,27.66,15.1,39.2v-78.42Z"/>
      <path class="cls-6" d="M203.52,481.99v-6.56c0-3.67.78-16.38,2.04-22.04,2.04-9.35,6.37-15.79,6.37-25.67,0-3.33-1.89-8.03-4.73-10.86-2.8-2.8-3.75-7.2-3.75-11.78v-10.45l-6.46.22.7,80.5,5.83,6.64Z"/>
      <path class="cls-3" d="M300.01,44.09c41.24,0,74.69,23.08,75.65,51.78.01-.43.12-.84.12-1.26,0-29.29-33.93-53.03-75.76-53.03s-75.73,23.74-75.73,53.03c0,.42.08.83.1,1.26.91-28.7,34.37-51.78,75.61-51.78Z"/>
      <path class="cls-3" d="M332.6,184.66v266.51c0,1.9-.63,3.5-1.41,4.99-.92,1.72-3,4.43-3,4.43,29.72-6.37,55.85-23.54,69.33-42.79.93-1.19,1.9-3.72,2.23-4.81.33-1.12.46-2.21.46-2.21V144.27c-13.46,19.27-37.92,34.04-67.62,40.39Z"/>
      <path class="cls-3" d="M398.49,463.29c-1.04-2.79-4.04-6.3-4.04-6.3-13.47,19.25-36.97,29.52-66.68,35.84,0,0,2.66,4.53,3.84,8.41,1.13,3.85,1,9.68,1,9.68v12.64c29.71-6.34,54.18-21.14,67.63-40.38v-11.11c0-2.62-.87-6.5-1.76-8.79Z"/>
      <path class="cls-4" d="M295,486.99c-.2-2.69-.7-5.04-1.41-7.1-47.41-2.09-85.92-26.85-93.76-58.98-1.51,1.19-3.23,2.82-4.27,4.66-.83,1.54-1.59,3.76-2.21,5.89,7.57,35.2,49.75,62.39,101.54,64.08.23-2.37.33-5.21.1-8.56Z"/>
      <path class="cls-4" d="M341.59,162.17c.08-1.71-1.26-2.9-2.35-3.37-1.16-.51-3.06-1.27-6.67-.32h-.31c-10.12,2.51-20.94,3.96-32.28,3.96-53.49,0-96.86-30.37-96.86-67.82,0-1.05.15-2.1.22-3.13,0-.09-.09-.15-.09-.26,0-1.67-.67-3.84-2.09-4.06-1.62-.32-2.41,1.02-3.21,2.72-.4.83-.7,2.02-.92,3.4-.03.17-.06.37-.08.54-.03.18-.03.42-.06.61-.17,1.43-.25,2.88-.25,4.33,0,39.95,46.27,72.35,103.33,72.35,14.34,0,27.85-2.2,40.22-5.89,1.19-.6,1.31-1.59,1.38-3.07Z"/>
      <path class="cls-5" d="M195.58,425.57c-.83,1.54-1.59,3.76-2.21,5.89,1.88,8.75,5.91,17.03,11.71,24.53.16-.99.31-1.86.49-2.62,1.01-4.6,2.55-8.46,3.85-12.37-4.51-6.23-7.84-12.99-9.56-20.09-1.53,1.17-3.23,2.82-4.28,4.65Z"/>
      <path class="cls-5" d="M203.14,94.61c0-1.05.16-2.1.23-3.13-.05-.1-.14-.15-.14-.27,0-1.67-.66-3.84-2.06-4.06-1.62-.29-2.41,1.04-3.21,2.74-.41.83-.7,2.02-.92,3.4-.03.17-.08.37-.09.54-.02.18-.03.42-.05.61-.17,1.43-.25,2.88-.25,4.33,0,11.95,4.22,23.19,11.54,33.13.63-.42,1.27-.83,2.02-1.13l5.91-2.36c-8.22-9.95-12.98-21.47-12.98-33.81Z"/>
    </g>
  </g>
</svg>