<?xml version="1.0" encoding="UTF-8"?>
<svg id="Layer_1" data-name="Layer 1" xmlns="http://www.w3.org/2000/svg" width="600" height="600" viewBox="0 0 600 600">
  <defs>
    <style>
      .cls-1 {
        opacity: .1;
      }

      .cls-1, .cls-2 {
        isolation: isolate;
      }

      .cls-3 {
        fill: #cc7720;
      }

      .cls-4 {
        fill: #8c8c8c;
      }

      .cls-2 {
        fill: #fff;
        opacity: .55;
      }
    </style>
  </defs>
  <g id="breadboard">
    <g>
      <path class="cls-4" d="M218.28,201.08s-.02.02-18.26,18.26c-11.02,10.75-18.13,24.04-21.04,39.23-3.07,15.22-3.25,32.34-3.3,56.3v216.2h32.43v-216.2h-.01c-.04-23.64.44-39.46,2.63-49.79,2.31-10.38,4.98-15.32,12.2-22.82q18.26-18.24,18.26-18.25l-22.92-22.93Z"/>
      <path class="cls-4" d="M424.3,314.85h0c-.03-23.94-.22-41.07-3.29-56.29-2.92-15.18-10.04-28.48-21.06-39.24q-18.23-18.24-18.23-18.25l-22.93,22.95,18.24,18.24c7.23,7.5,9.9,12.44,12.22,22.82,2.18,10.35,2.67,26.15,2.63,49.78h.06-.05s0,216.2,0,216.2h32.43v-216.2h-.02Z"/>
      <circle class="cls-3" cx="300" cy="166.6" r="97.67"/>
      <path d="M300,96.86c20.7,0,40.8-2.51,60.12-7.13-16.59-12.97-37.41-20.79-60.12-20.79s-43.52,7.82-60.12,20.79c19.31,4.63,39.41,7.13,60.12,7.13Z"/>
      <path class="cls-3" d="M205.41,190.26c1.46,5.29-.68,7.78-3.04,11.48-2.37,3.72-5.53,5.89-10.14,12.16-3.72,5.07-5.72,10.25-7.44,16.22-1.71,5.97-.32,10.14-.32,10.14l27.7,19.25s2.78-1.12,5.19-3.85c1.58-1.77,5.16-4.79,6.97-6.62,3.72-3.72,6.08-4.53,10.13-4.53s6.69.05,10.75,2.95c4.57,3.28,22.15-15.32,22.15-15.32l-38.96-26.36-17.34-21.17s-7.1.34-5.64,5.63Z"/>
      <path class="cls-3" d="M394.59,190.26c-1.46,5.29.67,7.78,3.03,11.48,2.38,3.72,5.55,5.89,10.14,12.16,3.72,5.07,5.73,10.25,7.44,16.22,1.68,5.97.3,10.14.3,10.14l-27.7,19.25s-2.77-1.12-5.19-3.85c-1.58-1.77-5.16-4.79-6.97-6.62-3.73-3.72-6.08-4.53-10.14-4.53s-6.69.05-10.75,2.95c-4.57,3.28-22.15-15.32-22.15-15.32l38.96-26.36,17.34-21.17c.05,0,7.13.34,5.69,5.63Z"/>
      <path class="cls-1" d="M373.73,247.31c-3.32-6.7-14.26-15.17-20.69-15.17s-31.4,4.72-42.21,4.72-37.17-5.41-45.62-5.41c-9.04,0-18.25,1.35-24.65,3.37-5.79,1.83-11.71,4.05-18.46,14.18-1.72,2.58-2.88,4.27-3.62,5.51,1.78-1.76,4.37-4.02,5.87-5.51,3.72-3.72,6.08-4.53,10.13-4.53s6.69.05,10.75,2.95h.01c15.62,10.6,34.47,16.82,54.79,16.82s39.17-6.21,54.77-16.82h.01c4.05-2.91,6.53-2.95,10.75-2.95,3.31.01,5.49.64,8.18,2.82Z"/>
      <path class="cls-1" d="M390.89,207.37c4.36,2.03,18.42,9.9,23.67,20.84-1.58-5.18-3.52-9.79-6.84-14.3-4.61-6.27-7.77-8.44-10.14-12.16-2.24-3.53-4.21-6.03-3.09-10.84,1.99-7.78,3.17-15.89,3.17-24.29,0-17.51-4.7-33.9-12.77-48.12.67,3.48,1.11,6.94,1.11,10.28,0,10.36-1.77,26.3-2.97,35.9-1.08,8.48-5.34,15.9-5.34,26.03.01,8.44,10.58,15.46,13.2,16.66Z"/>
      <path class="cls-2" d="M277.03,84.28c-6.63-.12-12.06,2.73-12.12,6.35-.02,1.56,1.1,2.97,2.8,4.14,5.18.66,10.4,1.16,15.66,1.51,3.25-1.12,5.55-2.97,5.59-5.24.04-3.63-5.29-6.65-11.93-6.76Z"/>
    </g>
  </g>
</svg>