<?xml version="1.0" encoding="UTF-8"?>
<svg id="Layer_1" data-name="Layer 1" xmlns="http://www.w3.org/2000/svg" width="600" height="600" viewBox="0 0 600 600">
  <defs>
    <style>
      .cls-1, .cls-2, .cls-3, .cls-4, .cls-5 {
        stroke-miterlimit: 10;
      }

      .cls-1, .cls-2, .cls-5 {
        stroke-width: .15px;
      }

      .cls-1, .cls-5 {
        stroke: #666766;
      }

      .cls-6 {
        fill: #95825d;
      }

      .cls-2 {
        fill: #565656;
        stroke: #848484;
      }

      .cls-7 {
        fill: #666766;
      }

      .cls-8 {
        fill: #3d3e3d;
      }

      .cls-9 {
        fill: #303030;
      }

      .cls-10 {
        fill: #020202;
      }

      .cls-3 {
        stroke-width: .5px;
      }

      .cls-3, .cls-4 {
        fill: none;
        stroke: #fff;
      }

      .cls-11 {
        fill: #fff;
      }

      .cls-12 {
        fill: #172149;
      }

      .cls-4 {
        stroke-width: .25px;
      }

      .cls-5 {
        fill: #191919;
      }

      .cls-13 {
        fill: #1e1f1f;
      }

      .cls-14 {
        fill: #ad9977;
      }

      .cls-15 {
        fill: #9a916c;
      }

      .cls-16 {
        fill: #999;
      }
    </style>
  </defs>
  <g id="breadboard">
    <path class="cls-12" d="M436.22,575.02l20.93-15.29V40.26l-20.92-15.29h-58.48l-17.9,17.61h-99.04l-16.46-17.61h-80.56s-20.93,15.29-20.93,15.29v519.47l20.92,15.29h272.44ZM432.17,35.22c9.01,0,16.31,7.3,16.31,16.31s-7.3,16.31-16.31,16.31-16.31-7.31-16.31-16.31c0-9.01,7.3-16.31,16.31-16.31ZM432.17,527.96c9.01,0,16.31,7.3,16.31,16.31s-7.3,16.31-16.31,16.31-16.31-7.3-16.31-16.31,7.3-16.31,16.31-16.31ZM385.53,517.38c3.05,0,5.53,2.48,5.53,5.53s-2.48,5.53-5.53,5.53-5.53-2.47-5.53-5.53,2.48-5.53,5.53-5.53ZM352.26,517.38c3.06,0,5.53,2.48,5.53,5.53s-2.48,5.53-5.53,5.53-5.53-2.48-5.53-5.53,2.48-5.53,5.53-5.53ZM319,517.38c3.06,0,5.53,2.48,5.53,5.53s-2.48,5.53-5.53,5.53-5.53-2.48-5.53-5.53,2.48-5.53,5.53-5.53ZM285.73,517.38c3.05,0,5.53,2.48,5.53,5.53s-2.48,5.53-5.53,5.53-5.53-2.48-5.53-5.53,2.48-5.53,5.53-5.53ZM252.47,517.38c3.06,0,5.53,2.48,5.53,5.53s-2.48,5.53-5.53,5.53-5.53-2.48-5.53-5.53,2.48-5.53,5.53-5.53ZM219.21,517.38c3.05,0,5.53,2.48,5.53,5.53s-2.48,5.53-5.53,5.53-5.53-2.48-5.53-5.53,2.48-5.53,5.53-5.53ZM171,35.22c9.01,0,16.31,7.3,16.31,16.31s-7.3,16.31-16.31,16.31-16.31-7.31-16.31-16.31,7.3-16.31,16.31-16.31ZM154.69,544.27c0-9.01,7.3-16.31,16.31-16.31s16.31,7.3,16.31,16.31-7.3,16.31-16.31,16.31-16.31-7.3-16.31-16.31Z"/>
    <g id="silkscreen">
      <rect class="cls-3" x="225.96" y="284.94" width="20.6" height="42.73"/>
      <rect class="cls-3" x="190.93" y="280.52" width="26.95" height="47.16"/>
      <rect class="cls-3" x="165.22" y="442.93" width="20.21" height="42.73"/>
      <path class="cls-3" d="M410.08,490.29h-43.02v-43.45h43.02v43.45ZM388.57,446.83v43.45M410.08,486.68h21.37v-42.88h-21.37v3.03"/>
      <rect class="cls-3" x="377.74" y="294.95" width="20.02" height="42.45"/>
      <rect class="cls-3" x="402.76" y="294.95" width="20.02" height="42.45"/>
      <rect class="cls-3" x="201.9" y="506.31" width="200.96" height="33.21"/>
      <g>
        <line class="cls-4" x1="204.4" y1="47.79" x2="204.4" y2="234.7"/>
        <line class="cls-4" x1="402.76" y1="229.55" x2="402.76" y2="130.94"/>
        <line class="cls-4" x1="265.13" y1="243.99" x2="225.96" y2="243.99"/>
      </g>
      <g>
        <path class="cls-11" d="M405.15,42.91c-2.87,2.33-5.74,4.67-8.6,7h3.27c-3.02-2.33-6.04-4.67-9.05-7-2.32-1.8-5.62,1.45-3.27,3.27,3.02,2.33,6.04,4.67,9.05,7,1.08.84,2.19.87,3.27,0,2.87-2.33,5.74-4.67,8.6-7,2.31-1.88-.97-5.13-3.27-3.27h0Z"/>
        <path class="cls-11" d="M400.49,51.54c-.07-7.5-.15-15-.23-22.49-.03-2.98-4.65-2.98-4.62,0,.07,7.5.15,15,.23,22.49.03,2.98,4.65,2.98,4.62,0h0Z"/>
      </g>
    </g>
    <g>
      <g>
        <rect class="cls-9" x="214.8" y="349.8" width="37.65" height="80.36"/>
        <polygon class="cls-8" points="211.95 346.51 211.95 346.39 214.88 349.8 214.88 430.16 211.95 433.58 211.95 346.51"/>
        <polygon points="252.37 349.8 255.3 346.38 255.3 349.8 255.3 430.16 255.3 433.58 252.37 430.16 252.37 430.16 252.37 349.8"/>
        <polygon class="cls-13" points="255.3 346.38 255.3 346.38 252.37 349.8 214.88 349.8 211.95 346.38 255.3 346.38"/>
        <polygon class="cls-13" points="252.37 430.16 255.3 433.58 211.95 433.58 214.88 430.16 252.37 430.16"/>
      </g>
      <g>
        <rect class="cls-16" x="193.24" y="413.82" width="18.72" height="10.11"/>
        <rect class="cls-7" x="198.91" y="413.82" width="5.58" height="10.11"/>
      </g>
      <g>
        <rect class="cls-16" x="255.3" y="368.29" width="23.11" height="40.14"/>
        <rect class="cls-7" x="266.28" y="368.29" width="5.63" height="40.14"/>
      </g>
      <g>
        <rect class="cls-16" x="193.24" y="384.37" width="18.72" height="10.11"/>
        <rect class="cls-7" x="198.91" y="384.37" width="5.58" height="10.11"/>
      </g>
      <g>
        <rect class="cls-16" x="193.24" y="353.47" width="18.72" height="10.11"/>
        <rect class="cls-7" x="198.91" y="353.47" width="5.58" height="10.11"/>
      </g>
    </g>
    <g>
      <rect class="cls-6" x="170.42" y="453.18" width="9.82" height="18.37"/>
      <rect class="cls-16" x="170.42" y="467.42" width="9.82" height="4.14"/>
      <rect class="cls-16" x="170.42" y="453.18" width="9.82" height="4.14"/>
    </g>
    <g>
      <rect class="cls-6" x="231.34" y="295.86" width="9.82" height="18.37"/>
      <rect class="cls-16" x="231.34" y="310.1" width="9.82" height="4.14"/>
      <rect class="cls-16" x="231.34" y="295.86" width="9.82" height="4.14"/>
    </g>
    <g>
      <rect class="cls-6" x="416.86" y="454.92" width="9.82" height="18.37"/>
      <rect class="cls-16" x="416.86" y="469.15" width="9.82" height="4.14"/>
      <rect class="cls-16" x="416.86" y="454.92" width="9.82" height="4.14"/>
    </g>
    <g>
      <rect class="cls-10" x="394.3" y="456.99" width="10" height="19.78"/>
      <rect class="cls-16" x="394.3" y="456.99" width="10" height="3.15"/>
      <rect class="cls-16" x="394.3" y="473.6" width="10" height="3.16"/>
    </g>
    <g>
      <rect class="cls-10" x="373.13" y="456.99" width="10" height="19.78"/>
      <rect class="cls-16" x="373.13" y="456.99" width="10" height="3.15"/>
      <rect class="cls-16" x="373.13" y="473.6" width="10" height="3.16"/>
    </g>
    <g>
      <rect class="cls-10" x="382.33" y="305.49" width="10.84" height="21.45"/>
      <rect class="cls-16" x="382.33" y="305.5" width="10.84" height="3.41"/>
      <rect class="cls-16" x="382.33" y="323.5" width="10.84" height="3.43"/>
    </g>
    <g>
      <rect class="cls-10" x="407.35" y="305.49" width="10.84" height="21.45"/>
      <rect class="cls-16" x="407.35" y="305.5" width="10.84" height="3.41"/>
      <rect class="cls-16" x="407.35" y="323.5" width="10.84" height="3.43"/>
    </g>
    <g>
      <rect class="cls-14" x="197.66" y="290.4" width="14.28" height="24.41"/>
      <rect class="cls-16" x="197.66" y="307.96" width="14.28" height="6.86"/>
      <rect class="cls-16" x="197.66" y="290.41" width="14.29" height="7.41"/>
    </g>
    <g>
      <rect x="365.61" y="363.96" width="61.07" height="54.28"/>
      <g>
        <g>
          <rect class="cls-7" x="370.37" y="421.25" width="1.98" height="2.31"/>
          <rect class="cls-16" x="370.37" y="418.32" width="1.98" height="2.93"/>
        </g>
        <g>
          <rect class="cls-7" x="378.51" y="421.25" width="1.98" height="2.31"/>
          <rect class="cls-16" x="378.51" y="418.32" width="1.98" height="2.93"/>
        </g>
        <g>
          <rect class="cls-7" x="387.22" y="421.25" width="1.98" height="2.31"/>
          <rect class="cls-16" x="387.22" y="418.32" width="1.98" height="2.93"/>
        </g>
        <g>
          <rect class="cls-7" x="395.67" y="421.25" width="1.98" height="2.31"/>
          <rect class="cls-16" x="395.67" y="418.32" width="1.98" height="2.93"/>
        </g>
        <g>
          <rect class="cls-7" x="404.33" y="421.25" width="1.98" height="2.31"/>
          <rect class="cls-16" x="404.33" y="418.32" width="1.98" height="2.93"/>
        </g>
        <g>
          <rect class="cls-7" x="412.49" y="421.25" width="1.98" height="2.31"/>
          <rect class="cls-16" x="412.49" y="418.32" width="1.98" height="2.93"/>
        </g>
        <g>
          <rect class="cls-7" x="421.08" y="421.25" width="1.98" height="2.31"/>
          <rect class="cls-16" x="421.08" y="418.32" width="1.98" height="2.93"/>
        </g>
      </g>
      <g>
        <g>
          <rect class="cls-7" x="421.02" y="358.72" width="1.98" height="2.31"/>
          <rect class="cls-16" x="421.02" y="361.03" width="1.98" height="2.93"/>
        </g>
        <g>
          <rect class="cls-7" x="412.89" y="358.72" width="1.98" height="2.31"/>
          <rect class="cls-16" x="412.89" y="361.03" width="1.98" height="2.93"/>
        </g>
        <g>
          <rect class="cls-7" x="404.17" y="358.72" width="1.98" height="2.31"/>
          <rect class="cls-16" x="404.17" y="361.03" width="1.98" height="2.93"/>
        </g>
        <g>
          <rect class="cls-7" x="395.73" y="358.72" width="1.98" height="2.31"/>
          <rect class="cls-16" x="395.73" y="361.03" width="1.98" height="2.93"/>
        </g>
        <g>
          <rect class="cls-7" x="387.07" y="358.72" width="1.98" height="2.31"/>
          <rect class="cls-16" x="387.07" y="361.03" width="1.98" height="2.93"/>
        </g>
        <g>
          <rect class="cls-7" x="378.91" y="358.72" width="1.98" height="2.31"/>
          <rect class="cls-16" x="378.91" y="361.03" width="1.98" height="2.93"/>
        </g>
        <g>
          <rect class="cls-7" x="370.32" y="358.72" width="1.98" height="2.31"/>
          <rect class="cls-16" x="370.32" y="361.03" width="1.98" height="2.93"/>
        </g>
      </g>
    </g>
    <g>
      <g>
        <g>
          <polygon class="cls-2" points="399.68 238.94 222.11 238.94 222.11 224.5 227.02 224.5 227.02 218.51 209.33 218.51 209.33 130.94 242.8 130.94 242.8 110.54 236.35 104.19 236.16 73.39 235.47 72.26 234.24 71.66 232.31 71.66 230.58 72.62 230.3 73.91 230 75.32 230.19 90.52 228.46 104.96 237.51 112.46 237.7 121.32 236.35 123.05 224.03 123.05 221.14 122.09 219.61 120.17 219.22 118.82 219.03 116.51 219.99 77.81 219.8 75.89 219.22 74.06 218.07 73.01 209.98 72.82 209.98 47.79 247.9 47.79 257.34 52.6 269.39 56.38 281.97 59.34 295.26 60.68 333.95 61.07 399.68 61.07 399.68 238.94"/>
          <polygon class="cls-5" points="222.11 238.94 222.11 224.5 227.02 224.5 227.02 218.51 209.33 218.51 209.33 130.94 242.8 130.94 242.8 110.54 236.35 104.19 236.16 73.39 235.47 72.26 234.24 71.66 232.31 71.66 230.58 72.62 230.3 73.91 230 75.32 230.19 90.52 228.46 104.96 237.51 112.46 237.7 121.32 236.35 123.05 224.03 123.05 221.14 122.09 219.61 120.17 219.22 118.82 219.03 116.51 219.99 77.81 219.8 75.89 219.22 74.06 218.07 73.01 209.98 72.82 209.98 47.79 206.52 47.79 206.52 238.94 222.11 238.94"/>
          <path class="cls-5" d="M222.11,238.36c0,10.61-15.59,10.96-15.59,0"/>
          <rect class="cls-1" x="211.26" y="72.86" width="2.94" height="58.09"/>
          <path class="cls-7" d="M218.86,238.94v-12.63h-10.9v12.63h10.9ZM210.92,229.34h4.26v6.93h-4.26v-6.93Z"/>
        </g>
        <polygon class="cls-5" points="399.68 229.55 388.86 225.22 388.86 168.63 390.44 166.9 399.68 166.9 399.68 229.55"/>
      </g>
      <g>
        <rect class="cls-16" x="340.88" y="238.94" width="11.36" height="17.13"/>
        <rect class="cls-16" x="326.25" y="238.94" width="11.36" height="17.13"/>
        <rect class="cls-16" x="312.01" y="238.94" width="11.36" height="17.13"/>
        <rect class="cls-16" x="297.18" y="238.94" width="11.36" height="17.13"/>
        <rect class="cls-16" x="282.94" y="238.94" width="11.36" height="17.13"/>
        <rect class="cls-16" x="268.5" y="238.94" width="11.36" height="17.13"/>
        <rect class="cls-16" x="384.19" y="238.94" width="11.36" height="17.13"/>
        <rect class="cls-16" x="369.94" y="238.94" width="11.36" height="17.13"/>
        <rect class="cls-16" x="355.9" y="238.94" width="11.36" height="17.13"/>
      </g>
    </g>
    <g id="copper1">
      <path id="connector13pin" class="cls-15" d="M385.53,533.97c6.1,0,11.06-4.95,11.06-11.06s-4.95-11.06-11.06-11.06-11.06,4.95-11.06,11.06,4.96,11.06,11.06,11.06ZM385.53,517.38c3.05,0,5.53,2.48,5.53,5.53s-2.48,5.53-5.53,5.53-5.53-2.47-5.53-5.53c0-3.04,2.48-5.53,5.53-5.53Z"/>
      <path id="connector12pin" class="cls-15" d="M352.26,533.97c6.1,0,11.06-4.95,11.06-11.06s-4.95-11.06-11.06-11.06-11.06,4.95-11.06,11.06,4.95,11.06,11.06,11.06ZM352.26,517.38c3.05,0,5.53,2.48,5.53,5.53s-2.48,5.53-5.53,5.53-5.53-2.47-5.53-5.53c0-3.04,2.47-5.53,5.53-5.53Z"/>
      <path id="connector11pin" class="cls-15" d="M319,533.97c6.1,0,11.06-4.95,11.06-11.06s-4.95-11.06-11.06-11.06-11.06,4.95-11.06,11.06,4.95,11.06,11.06,11.06ZM318.99,517.38c3.05,0,5.53,2.48,5.53,5.53s-2.48,5.53-5.53,5.53-5.53-2.47-5.53-5.53c0-3.04,2.47-5.53,5.53-5.53Z"/>
      <path id="connector10pin" class="cls-15" d="M285.73,533.97c6.1,0,11.06-4.95,11.06-11.06s-4.95-11.06-11.06-11.06-11.06,4.95-11.06,11.06c0,6.11,4.95,11.06,11.06,11.06ZM285.73,517.38c3.05,0,5.53,2.48,5.53,5.53s-2.47,5.53-5.53,5.53-5.53-2.47-5.53-5.53,2.48-5.53,5.53-5.53Z"/>
      <path id="connector9pin" class="cls-15" d="M252.48,533.97c6.1,0,11.06-4.95,11.06-11.06s-4.95-11.06-11.06-11.06-11.06,4.95-11.06,11.06c0,6.11,4.95,11.06,11.06,11.06ZM252.48,517.38c3.05,0,5.53,2.48,5.53,5.53s-2.47,5.53-5.53,5.53-5.53-2.47-5.53-5.53c0-3.04,2.48-5.53,5.53-5.53Z"/>
      <path id="connector8pin" class="cls-15" d="M219.21,533.97c6.1,0,11.06-4.95,11.06-11.06s-4.95-11.06-11.06-11.06-11.06,4.95-11.06,11.06,4.95,11.06,11.06,11.06ZM219.21,517.38c3.05,0,5.53,2.48,5.53,5.53s-2.47,5.53-5.53,5.53-5.53-2.47-5.53-5.53c0-3.04,2.48-5.53,5.53-5.53Z"/>
    </g>
  </g>
</svg>