<?xml version="1.0" encoding="UTF-8"?>
<svg id="Layer_1" xmlns="http://www.w3.org/2000/svg" version="1.1" viewBox="0 0 100 125">
  <!-- Generator: Adobe Illustrator 29.0.0, SVG Export Plug-In . SVG Version: 2.1.0 Build 186)  -->
  <defs>
    <style>
      .st0 {
        isolation: isolate;
      }
    </style>
  </defs>
  <path d="M33,49.7h4.2v33.6c0,1.2.9,2.1,2.1,2.1s2.1-.9,2.1-2.1v-33.6h8.4v33.6c0,1.2.9,2.1,2.1,2.1s2.1-.9,2.1-2.1v-33.6h8.4v33.6c0,1.2.9,2.1,2.1,2.1s2.1-.9,2.1-2.1v-33.6h4.2c1.2,0,2.1-.9,2.1-2.1v-23.1c0-8.2-9.2-14.7-21-14.7s-21,6.5-21,14.7v23.1c0,1.2.9,2.1,2.1,2.1ZM51.9,14c8,0,14.8,3.7,16.4,8.4h-32.9c1.6-4.7,8.5-8.4,16.4-8.4ZM35.1,26.6h33.6v18.9h-33.6v-18.9Z"/>
  <g class="st0">
    <path d="M6.7,109.5c-.6,0-1.1-.1-1.6-.4-.5-.3-.8-.7-1.1-1.2-.3-.5-.4-1.1-.4-1.9s.1-1.3.4-1.9.6-.9,1.1-1.2c.5-.3,1-.4,1.6-.4s.7,0,1,.2.6.2.8.4c.2.2.4.4.6.7.2.3.3.6.3.9h-.9c0-.2-.1-.4-.2-.6s-.3-.3-.4-.4c-.2-.1-.4-.2-.6-.3s-.4,0-.6,0c-.4,0-.8.1-1.1.3-.3.2-.6.5-.8.9-.2.4-.3.9-.3,1.5s0,1.1.3,1.5c.2.4.5.7.8.9.3.2.7.3,1.1.3s.4,0,.6,0,.4-.2.6-.3c.2-.1.3-.3.4-.4.1-.2.2-.4.2-.6h.9c0,.3-.2.7-.3.9s-.4.5-.6.7c-.2.2-.5.3-.8.4-.3.1-.6.2-1,.2Z"/>
    <path d="M12.8,109.5c-.5,0-.9-.1-1.2-.3-.3-.2-.6-.5-.8-.9-.2-.4-.3-.9-.3-1.4s0-1,.3-1.4c.2-.4.5-.7.8-.9.3-.2.8-.3,1.2-.3s.9.1,1.2.3c.4.2.6.5.8.9.2.4.3.9.3,1.4s0,1-.3,1.4c-.2.4-.5.7-.8.9-.4.2-.8.3-1.2.3ZM12.8,108.7c.3,0,.6,0,.9-.3.2-.2.4-.4.5-.7.1-.3.2-.6.2-.9s0-.7-.2-.9c-.1-.3-.3-.5-.5-.7-.2-.2-.5-.3-.9-.3s-.6,0-.8.3c-.2.2-.4.4-.5.7-.1.3-.2.6-.2.9s0,.6.2.9c.1.3.3.5.5.7.2.2.5.3.8.3Z"/>
    <path d="M17.1,102.5v6.8h-.8v-6.8h.8Z"/>
    <path d="M19.4,102.5v6.8h-.8v-6.8h.8Z"/>
    <path d="M23,109.5c-.5,0-.9-.1-1.3-.3-.4-.2-.6-.5-.8-.9-.2-.4-.3-.9-.3-1.4s0-1,.3-1.4.5-.7.8-.9c.3-.2.8-.3,1.2-.3s.5,0,.8.1.5.2.7.4.4.5.5.8.2.7.2,1.2v.3h-4v-.7h3.5l-.4.3c0-.3,0-.6-.2-.9-.1-.3-.3-.5-.5-.6-.2-.1-.5-.2-.8-.2s-.6,0-.8.2c-.2.2-.4.3-.5.6s-.2.5-.2.8v.5c0,.4,0,.7.2,1,.1.3.3.5.6.6s.5.2.8.2.4,0,.5,0c.2,0,.3-.1.4-.3.1-.1.2-.3.3-.4l.8.2c0,.3-.2.5-.4.7-.2.2-.4.3-.7.5-.3.1-.6.2-.9.2Z"/>
    <path d="M28.4,109.5c-.5,0-.9-.1-1.2-.3-.3-.2-.6-.5-.8-.9-.2-.4-.3-.9-.3-1.4s0-1,.3-1.4c.2-.4.5-.7.8-.9.3-.2.8-.3,1.2-.3s.5,0,.7,0c.2,0,.4.2.6.3.2.1.3.3.5.4.1.2.2.4.3.6l-.8.2c0-.1,0-.3-.2-.4,0-.1-.2-.2-.3-.3-.1,0-.2-.1-.4-.2s-.3,0-.5,0c-.3,0-.6,0-.8.3-.2.2-.4.4-.5.7-.1.3-.2.6-.2.9s0,.6.2.9c.1.3.3.5.5.7.2.2.5.3.8.3s.3,0,.5,0c.1,0,.3-.1.4-.2.1,0,.2-.2.3-.3,0-.1.1-.2.2-.4l.8.2c0,.2-.2.4-.3.6-.1.2-.3.3-.5.5-.2.1-.4.2-.6.3-.2,0-.5,0-.7,0Z"/>
    <path d="M33.7,104.2v.7h-2.6v-.7h2.6ZM31.8,103h.8v5c0,.2,0,.4.1.5,0,.1.2.2.5.2s.1,0,.2,0c0,0,.2,0,.2,0l.2.7c0,0-.2,0-.3,0-.1,0-.2,0-.3,0-.4,0-.8-.1-1-.4-.2-.2-.4-.6-.4-1v-5.1Z"/>
    <path d="M36.7,109.5c-.5,0-.9-.1-1.2-.3-.3-.2-.6-.5-.8-.9-.2-.4-.3-.9-.3-1.4s0-1,.3-1.4c.2-.4.5-.7.8-.9.3-.2.8-.3,1.2-.3s.9.1,1.2.3c.4.2.6.5.8.9.2.4.3.9.3,1.4s0,1-.3,1.4c-.2.4-.5.7-.8.9-.4.2-.8.3-1.2.3ZM36.7,108.7c.3,0,.6,0,.9-.3.2-.2.4-.4.5-.7.1-.3.2-.6.2-.9s0-.7-.2-.9c-.1-.3-.3-.5-.5-.7-.2-.2-.5-.3-.9-.3s-.6,0-.8.3c-.2.2-.4.4-.5.7-.1.3-.2.6-.2.9s0,.6.2.9c.1.3.3.5.5.7.2.2.5.3.8.3Z"/>
    <path d="M40.2,109.4v-5.1h.8v.8h0c0-.3.3-.5.5-.6s.5-.2.8-.2.1,0,.2,0c0,0,.2,0,.2,0v.8s0,0-.2,0c0,0-.2,0-.3,0-.2,0-.5,0-.7.2-.2.1-.3.2-.5.4s-.2.4-.2.6v3.2h-.8Z"/>
  </g>
  <g class="st0">
    <path d="M42.2,120.1v-6.8h2.4c.5,0,.9,0,1.2.2.3.2.5.4.7.7s.2.6.2.9,0,.5-.2.7-.2.3-.4.5c-.2.1-.4.2-.6.3h0c.2,0,.4.1.6.3s.4.3.5.6.2.5.2.9,0,.6-.2.9c-.2.3-.4.5-.7.7s-.8.2-1.3.2h-2.5ZM43.1,116.3h1.5c.2,0,.5,0,.7-.1.2,0,.4-.2.5-.4.1-.2.2-.4.2-.6s-.1-.5-.3-.8-.5-.3-1-.3h-1.5v2.2ZM43.1,119.3h1.6c.5,0,.9-.1,1.1-.3.2-.2.3-.5.3-.8s0-.4-.2-.6c-.1-.2-.3-.3-.5-.5s-.5-.2-.8-.2h-1.6v2.3Z"/>
    <path d="M49.7,120.2c-.3,0-.6,0-.9-.2-.3-.1-.5-.3-.6-.5-.2-.2-.2-.5-.2-.9s0-.5.2-.7c.1-.2.3-.3.5-.4.2-.1.4-.2.6-.2.2,0,.5,0,.7-.1.3,0,.6,0,.7,0,.2,0,.3,0,.4-.1,0,0,.1-.1.1-.3h0c0-.2,0-.4-.1-.6,0-.1-.2-.3-.4-.3-.2,0-.4-.1-.6-.1s-.5,0-.6.1c-.2,0-.3.2-.4.3-.1.1-.2.2-.2.4l-.8-.3c.1-.3.3-.6.5-.7.2-.2.5-.3.7-.4.3,0,.5-.1.8-.1s.4,0,.6,0c.2,0,.4.1.6.2.2.1.4.3.5.5.1.2.2.6.2,1v3.4h-.8v-.7h0c0,.1-.2.2-.3.4-.1.1-.3.2-.5.3-.2,0-.5.1-.7.1ZM49.8,119.5c.3,0,.6,0,.8-.2.2-.1.4-.3.5-.5.1-.2.2-.4.2-.6v-.7s-.1,0-.2.1c-.1,0-.2,0-.4,0-.1,0-.3,0-.4,0s-.2,0-.3,0c-.2,0-.4,0-.6.1-.2,0-.3.1-.4.3s-.2.3-.2.5,0,.3.1.4c0,.1.2.2.4.3.2,0,.3,0,.5,0Z"/>
    <path d="M55.3,120.2c-.4,0-.7,0-.9-.2-.3-.1-.5-.3-.7-.5s-.3-.4-.4-.7l.8-.2c0,.3.2.5.4.6.2.1.5.2.8.2s.6,0,.9-.2c.2-.2.3-.3.3-.5s0-.3-.2-.4c-.1-.1-.3-.2-.6-.3l-.9-.2c-.5-.1-.8-.3-1-.5-.2-.2-.3-.5-.3-.9s0-.6.2-.8c.2-.2.4-.4.7-.5.3-.1.6-.2,1-.2s.6,0,.9.2c.2.1.4.2.6.4.2.2.3.4.3.6l-.7.2c0-.2-.2-.3-.3-.5s-.4-.2-.7-.2-.6,0-.8.2c-.2.1-.3.3-.3.5s0,.3.2.5c.1.1.4.2.7.3l.8.2c.5.1.8.3,1,.5.2.2.3.5.3.9s0,.6-.3.8c-.2.2-.4.4-.7.6-.3.1-.7.2-1.1.2Z"/>
    <path d="M60.6,120.2c-.5,0-.9-.1-1.3-.3-.4-.2-.6-.5-.8-.9-.2-.4-.3-.9-.3-1.4s0-1,.3-1.4c.2-.4.5-.7.8-.9.3-.2.8-.3,1.2-.3s.5,0,.8.1.5.2.7.4.4.5.5.8.2.7.2,1.2v.3h-4v-.7h3.5l-.4.3c0-.3,0-.6-.2-.9-.1-.3-.3-.5-.5-.6-.2-.1-.5-.2-.8-.2s-.6,0-.8.2c-.2.2-.4.3-.5.6-.1.2-.2.5-.2.8v.5c0,.4,0,.7.2,1s.3.5.6.6.5.2.8.2.4,0,.5,0c.2,0,.3-.1.4-.3s.2-.3.3-.4l.8.2c0,.3-.2.5-.4.7-.2.2-.4.3-.7.5-.3.1-.6.2-.9.2Z"/>
  </g>
  <g class="st0">
    <path d="M65.3,111.4v-6.8h4.2v.8h-3.3v2.2h3.1v.8h-3.1v2.3h3.3v.8h-4.2Z"/>
    <path d="M70.8,111.4v-5.1h.8v1.1s0,0,0,0c0-.3.2-.5.3-.7.2-.2.3-.3.5-.4.2,0,.4-.1.6-.1.4,0,.7.1.9.3.2.2.4.5.4.9h-.1c0-.3.2-.5.3-.7.2-.2.4-.3.6-.4s.5-.2.8-.2.6,0,.8.2.4.3.6.6c.1.3.2.6.2,1v3.4h-.8v-3.4c0-.4-.1-.6-.3-.8-.2-.2-.4-.2-.7-.2s-.4,0-.6.1c-.2,0-.3.2-.4.4,0,.2-.1.4-.1.6v3.3h-.8v-3.5c0-.3,0-.5-.3-.7-.2-.2-.4-.3-.7-.3s-.4,0-.6.1c-.2,0-.3.2-.4.4-.1.2-.2.4-.2.7v3.2h-.8Z"/>
    <path d="M79.4,105.5c-.2,0-.3,0-.4-.2s-.2-.2-.2-.4,0-.3.2-.4.2-.2.4-.2.3,0,.4.2c.1.1.2.2.2.4s0,.3-.2.4c-.1.1-.2.2-.4.2ZM79,111.4v-5.1h.8v5.1h-.8Z"/>
    <path d="M83.3,106.3v.7h-2.6v-.7h2.6ZM81.4,105.1h.8v5c0,.2,0,.4.1.5s.2.2.5.2.1,0,.2,0c0,0,.2,0,.2,0l.2.7c0,0-.2,0-.3,0s-.2,0-.3,0c-.4,0-.8-.1-1-.4-.2-.2-.4-.6-.4-1v-5.1Z"/>
    <path d="M86.4,106.3v.7h-2.6v-.7h2.6ZM84.5,105.1h.8v5c0,.2,0,.4.1.5s.2.2.5.2.1,0,.2,0c0,0,.2,0,.2,0l.2.7c0,0-.2,0-.3,0s-.2,0-.3,0c-.4,0-.8-.1-1-.4-.2-.2-.4-.6-.4-1v-5.1Z"/>
    <path d="M89.5,111.5c-.5,0-.9-.1-1.3-.3-.4-.2-.6-.5-.8-.9-.2-.4-.3-.9-.3-1.4s0-1,.3-1.4c.2-.4.5-.7.8-.9s.8-.3,1.2-.3.5,0,.8.1.5.2.7.4.4.5.5.8.2.7.2,1.2v.3h-4v-.7h3.5l-.4.3c0-.3,0-.6-.2-.9-.1-.3-.3-.5-.5-.6-.2-.1-.5-.2-.8-.2s-.6,0-.8.2c-.2.2-.4.3-.5.6-.1.2-.2.5-.2.8v.5c0,.4,0,.7.2,1,.1.3.3.5.5.6.2.1.5.2.8.2s.4,0,.5,0c.2,0,.3-.1.4-.3s.2-.3.3-.4l.8.2c0,.3-.2.5-.4.7-.2.2-.4.3-.7.5-.3.1-.6.2-.9.2Z"/>
    <path d="M92.8,111.4v-5.1h.8v.8h0c0-.3.3-.5.5-.6s.5-.2.8-.2.1,0,.2,0c0,0,.1,0,.2,0v.8s0,0-.2,0c0,0-.2,0-.3,0-.2,0-.5,0-.7.2-.2.1-.3.2-.5.4s-.2.4-.2.6v3.2h-.8Z"/>
  </g>
</svg>