<?xml version="1.0" encoding="UTF-8"?>
<svg id="Layer_1" data-name="Layer 1" xmlns="http://www.w3.org/2000/svg" width="600" height="600" viewBox="0 0 600 600">
  <defs>
    <style>
      .cls-1 {
        fill: #404040;
      }

      .cls-2 {
        fill: #dfdfdf;
      }

      .cls-3 {
        opacity: .63;
      }

      .cls-3, .cls-4 {
        isolation: isolate;
      }

      .cls-5 {
        fill: #151515;
      }

      .cls-6 {
        fill: #7a0000;
      }

      .cls-7 {
        fill: #232323;
      }

      .cls-8 {
        fill: #510000;
      }

      .cls-9 {
        fill: #1c1c1c;
      }

      .cls-10 {
        fill: #171717;
      }

      .cls-11 {
        fill: #4e0000;
      }

      .cls-12 {
        fill: #1e1e1e;
      }

      .cls-13 {
        fill: #919191;
      }

      .cls-14 {
        fill: #1d1d1d;
      }

      .cls-15 {
        fill: #212121;
      }

      .cls-16 {
        fill: #141414;
      }

      .cls-17 {
        fill: #262626;
      }

      .cls-18 {
        fill: #242424;
      }

      .cls-19 {
        fill: #4c0000;
      }

      .cls-20 {
        fill: #8b8b8b;
      }

      .cls-21 {
        fill: #1f1f1f;
      }

      .cls-22 {
        fill: #490000;
      }

      .cls-23 {
        fill: #131313;
      }

      .cls-24 {
        fill: #202020;
      }

      .cls-25 {
        fill: #252525;
      }

      .cls-26 {
        fill: #cc1414;
      }

      .cls-27 {
        fill: #191919;
      }

      .cls-28 {
        fill: none;
        stroke: #000;
        stroke-width: 3px;
      }

      .cls-29 {
        fill: #4b4b4b;
      }

      .cls-30 {
        fill: #535353;
      }

      .cls-31 {
        fill: #1a1a1a;
      }

      .cls-32 {
        fill: #161616;
      }

      .cls-33 {
        fill: #181818;
      }

      .cls-34 {
        fill: #1b1b1b;
      }

      .cls-35 {
        fill: #222;
      }
    </style>
  </defs>
  <g id="breadboard">
    <rect id="connector0pin" class="cls-13" x="249.47" y="541.93" width="20.76" height="30.54"/>
    <rect id="connector1pin" class="cls-13" x="319.51" y="541.93" width="20.95" height="30.53"/>
    <rect id="bb" class="cls-20" x="248.03" y="492.54" width="29.05" height="79.95"/>
    <rect id="aa" class="cls-20" x="317.76" y="492.54" width="29.05" height="79.95"/>
    <path class="cls-28" d="M262.5,392v100.53"/>
    <path class="cls-28" d="M332.62,392v100.53"/>
    <ellipse class="cls-20" cx="297.41" cy="175.09" rx="170.19" ry="70.99"/>
    <path class="cls-17" d="M127.22,369.21c0,39.23,76.21,70.99,170.19,70.99s170.19-31.76,170.19-70.99v-194.12c0,39.22-76.2,70.99-170.19,70.99s-170.19-31.76-170.19-70.99v194.12Z"/>
    <path class="cls-3" d="M127.22,175.09v194.1c0,24.77,30.49,46.58,76.58,59.27v-194.11c-46.1-12.71-76.58-34.48-76.58-59.27Z"/>
    <path class="cls-20" d="M461.71,205.52v169.89c3.74-5.86,5.89-11.97,5.89-18.33v-169.87c0,6.35-2.16,12.46-5.89,18.31Z"/>
    <g class="cls-4">
      <g class="cls-4">
        <g class="cls-4">
          <path class="cls-16" d="M55.33,266.04h489.34c-.11.46-.29.85-.58,1.19-.29.34-.66.61-1.13.83s-1.01.39-1.63.49-1.34.16-2.11.16H60.54c-.74,0-1.42-.06-2.01-.16-.6-.11-1.13-.27-1.56-.49-.45-.22-.81-.49-1.09-.83-.28-.34-.46-.74-.55-1.19"/>
        </g>
      </g>
      <polygon class="cls-23" points="545.2 263.41 544.66 266.04 55.33 266.04 54.77 263.41 545.2 263.41"/>
      <g class="cls-4">
        <g class="cls-4">
          <polyline class="cls-30" points="439.9 128 151.83 128 151.81 127.97 151.79 127.94 151.77 127.91 151.75 127.87 439.96 127.87 439.95 127.91 439.94 127.94 439.92 127.97 439.9 128"/>
          <polyline class="cls-29" points="439.96 127.87 151.75 127.87 151.73 127.83 151.71 127.79 151.69 127.75 151.67 127.72 440.04 127.72 440.02 127.75 440 127.79 439.97 127.83 439.96 127.87"/>
          <polyline class="cls-1" points="440.04 127.72 151.67 127.72 151.64 127.68 151.62 127.64 151.6 127.6 151.58 127.56 440.12 127.56 440.1 127.6 440.08 127.64 440.06 127.68 440.04 127.72"/>
          <polyline class="cls-17" points="440.12 127.56 151.58 127.56 151.56 127.52 151.53 127.48 151.51 127.44 151.48 127.41 440.22 127.41 440.2 127.44 440.17 127.48 440.14 127.52 440.12 127.56"/>
          <polyline class="cls-25" points="440.22 127.41 151.48 127.41 151.46 127.36 151.44 127.33 151.42 127.29 151.4 127.25 440.3 127.25 440.28 127.29 440.26 127.33 440.24 127.36 440.22 127.41"/>
          <polyline class="cls-18" points="440.3 127.25 151.4 127.25 151.38 127.21 151.35 127.16 151.33 127.13 151.31 127.09 440.38 127.09 440.35 127.13 440.34 127.16 440.32 127.21 440.3 127.25"/>
          <polyline class="cls-18" points="440.38 127.09 151.31 127.09 151.29 127.06 151.27 127.02 151.25 126.98 151.23 126.94 440.46 126.94 440.44 126.98 440.42 127.02 440.4 127.06 440.38 127.09"/>
          <polyline class="cls-7" points="440.46 126.94 151.23 126.94 151.21 126.9 151.18 126.86 151.16 126.82 151.14 126.78 440.54 126.78 440.52 126.82 440.5 126.86 440.49 126.9 440.46 126.94"/>
          <polyline class="cls-35" points="440.54 126.78 151.14 126.78 151.11 126.75 151.09 126.72 151.06 126.68 151.04 126.64 440.63 126.64 440.61 126.68 440.6 126.72 440.57 126.75 440.54 126.78"/>
          <polyline class="cls-15" points="440.63 126.64 151.04 126.64 151.02 126.6 151 126.56 150.98 126.52 150.96 126.49 440.72 126.49 440.69 126.52 440.67 126.56 440.65 126.6 440.63 126.64"/>
          <polyline class="cls-15" points="440.72 126.49 150.96 126.49 150.93 126.43 150.9 126.38 150.87 126.33 150.84 126.28 440.83 126.28 440.8 126.33 440.77 126.38 440.75 126.43 440.72 126.49"/>
          <polyline class="cls-24" points="440.83 126.28 150.84 126.28 150.81 126.22 150.77 126.16 150.73 126.1 150.7 126.05 440.96 126.05 440.92 126.1 440.9 126.16 440.86 126.22 440.83 126.28"/>
          <polyline class="cls-21" points="440.96 126.05 150.7 126.05 150.66 125.99 150.62 125.93 150.61 125.88 150.57 125.82 441.09 125.82 441.06 125.88 441.02 125.93 440.99 125.99 440.96 126.05"/>
          <polyline class="cls-12" points="441.09 125.82 150.57 125.82 150.54 125.77 150.5 125.71 150.47 125.65 150.43 125.59 441.22 125.59 441.18 125.65 441.16 125.71 441.12 125.77 441.09 125.82"/>
          <polyline class="cls-12" points="441.22 125.59 150.43 125.59 150.4 125.53 150.36 125.48 150.33 125.43 150.29 125.38 441.33 125.38 441.3 125.43 441.27 125.48 441.25 125.53 441.22 125.59"/>
          <polyline class="cls-14" points="441.33 125.38 150.29 125.38 150.26 125.32 150.23 125.26 150.2 125.21 150.17 125.15 441.47 125.15 441.44 125.21 441.41 125.26 441.37 125.32 441.33 125.38"/>
          <polyline class="cls-9" points="441.47 125.15 150.17 125.15 150.12 125.09 150.08 125.01 150.04 124.94 149.99 124.87 441.63 124.87 441.59 124.94 441.56 125.01 441.52 125.09 441.47 125.15"/>
          <polyline class="cls-34" points="441.63 124.87 149.99 124.87 149.93 124.76 149.86 124.66 149.8 124.55 149.73 124.46 441.89 124.46 441.82 124.55 441.75 124.66 441.69 124.76 441.63 124.87"/>
          <polyline class="cls-34" points="441.89 124.46 149.73 124.46 149.67 124.35 149.61 124.25 149.55 124.15 149.48 124.05 442.11 124.05 442.06 124.15 441.99 124.25 441.94 124.35 441.89 124.46"/>
          <polyline class="cls-31" points="442.11 124.05 149.48 124.05 149.4 123.93 149.34 123.82 149.28 123.72 149.21 123.61 442.38 123.61 442.32 123.72 442.25 123.82 442.19 123.93 442.11 124.05"/>
          <path class="cls-27" d="M442.38,123.61H149.21c-.04-.06-.08-.13-.12-.18-.05-.06-.09-.13-.12-.18s-.08-.12-.12-.17c-.04-.06-.08-.12-.12-.17h294.08c-.04.06-.07.12-.11.17s-.08.12-.12.17c-.05.06-.09.12-.13.18-.03.07-.07.13-.1.18"/>
          <path class="cls-33" d="M442.82,122.9H148.74c-.05-.08-.11-.15-.15-.21-.05-.07-.1-.15-.15-.2-.05-.07-.1-.15-.15-.2-.06-.07-.11-.14-.14-.2h295.18c-.05.07-.09.14-.14.2s-.09.14-.14.2-.11.14-.15.2c-.02.07-.07.14-.12.21"/>
          <path class="cls-33" d="M443.35,122.07H148.18c-.08-.11-.15-.21-.21-.31-.07-.11-.16-.2-.21-.3-.08-.1-.15-.2-.2-.29s-.15-.19-.2-.28h296.84c-.07.09-.13.19-.2.28-.06.1-.14.19-.2.29-.07.1-.14.2-.2.3s-.15.19-.22.31"/>
          <path class="cls-10" d="M444.16,120.88H147.33c-.12-.16-.23-.32-.36-.48-.13-.16-.23-.3-.36-.44-.11-.14-.21-.27-.33-.41-.11-.13-.21-.25-.32-.38h299.5c-.12.12-.2.24-.31.38s-.2.27-.31.41c-.12.15-.2.29-.33.44-.12.15-.22.31-.35.48"/>
          <path class="cls-32" d="M445.47,119.18H145.97c-.22-.25-.44-.49-.64-.69s-.4-.39-.58-.54c-.19-.16-.37-.28-.54-.4-.16-.11-.32-.19-.47-.25h303.86c-.15.06-.29.15-.46.25-.16.11-.32.24-.5.4-.19.16-.36.34-.57.54-.17.2-.39.44-.59.69"/>
          <polyline class="cls-5" points="447.59 117.3 143.74 117.3 143.61 117.26 143.48 117.23 143.37 117.21 143.26 117.2 173.61 117.2 204.04 117.2 234.54 117.2 265.06 117.2 295.61 117.2 310.9 117.2 326.17 117.2 356.7 117.2 387.21 117.2 402.44 117.2 417.66 117.2 448.04 117.2 447.93 117.21 447.8 117.23 447.7 117.26 447.59 117.3"/>
        </g>
      </g>
      <path class="cls-15" d="M439.9,128c6.67,9.87,13.68,20.27,20.66,30.61,6.98,10.34,13.89,20.61,20.37,30.2s12.49,18.5,17.63,26.13c5.15,7.64,9.44,13.98,12.45,18.45H87.18c2.84-4.64,6.82-11.12,11.56-18.84,4.74-7.72,10.24-16.68,16.12-26.28,5.87-9.6,12.15-19.81,18.43-30.06,6.29-10.25,12.6-20.52,18.54-30.21h216.9c24.15,0,47.99,0,71.18,0Z"/>
      <g class="cls-4">
        <g class="cls-4">
          <polyline class="cls-30" points="151.83 128 87.17 233.39 87.15 233.4 87.12 233.42 87.09 233.44 87.06 233.45 151.79 127.94 151.8 127.95 151.81 127.97 151.82 127.98 151.83 128"/>
          <polyline class="cls-29" points="151.79 127.94 87.06 233.45 87.03 233.47 87 233.49 86.96 233.51 86.93 233.53 151.75 127.86 151.76 127.88 151.77 127.9 151.78 127.92 151.79 127.94"/>
          <polyline class="cls-1" points="151.75 127.86 86.93 233.53 86.9 233.54 86.86 233.56 86.83 233.58 86.78 233.6 151.7 127.78 151.71 127.8 151.72 127.82 151.74 127.84 151.75 127.86"/>
          <polyline class="cls-17" points="151.7 127.78 86.78 233.6 86.75 233.62 86.72 233.64 86.69 233.66 86.65 233.67 151.66 127.72 151.67 127.74 151.68 127.74 151.69 127.76 151.7 127.78"/>
          <polyline class="cls-25" points="151.66 127.72 86.65 233.67 86.61 233.7 86.59 233.72 86.56 233.74 86.52 233.76 151.62 127.64 151.63 127.66 151.64 127.68 151.65 127.7 151.66 127.72"/>
          <polyline class="cls-18" points="151.62 127.64 86.52 233.76 86.48 233.78 86.45 233.8 86.41 233.82 86.37 233.84 151.58 127.56 151.59 127.58 151.6 127.6 151.61 127.62 151.62 127.64"/>
          <polyline class="cls-18" points="151.58 127.56 86.37 233.84 86.34 233.86 86.31 233.87 86.28 233.88 86.25 233.9 151.54 127.48 151.55 127.5 151.56 127.52 151.57 127.54 151.58 127.56"/>
          <polyline class="cls-7" points="151.54 127.48 86.25 233.9 86.21 233.92 86.18 233.94 86.15 233.97 86.11 233.99 151.48 127.41 151.5 127.42 151.51 127.44 151.53 127.46 151.54 127.48"/>
          <polyline class="cls-35" points="151.48 127.41 86.11 233.99 86.07 234.01 86.04 234.03 86 234.05 85.96 234.07 151.44 127.34 151.45 127.35 151.46 127.37 151.48 127.39 151.48 127.41"/>
          <polyline class="cls-15" points="151.44 127.34 85.96 234.07 85.94 234.08 85.91 234.1 85.87 234.12 85.84 234.15 151.41 127.26 151.42 127.28 151.43 127.3 151.43 127.32 151.44 127.34"/>
          <polyline class="cls-15" points="151.41 127.26 85.84 234.15 85.8 234.17 85.77 234.19 85.74 234.2 85.7 234.22 151.36 127.18 151.37 127.2 151.38 127.22 151.4 127.24 151.41 127.26"/>
          <polyline class="cls-24" points="151.36 127.18 85.7 234.22 85.66 234.24 85.63 234.26 85.6 234.27 85.56 234.29 151.32 127.11 151.33 127.13 151.34 127.14 151.35 127.16 151.36 127.18"/>
          <polyline class="cls-21" points="151.32 127.11 85.56 234.29 85.53 234.31 85.5 234.33 85.46 234.36 85.43 234.38 151.28 127.04 151.29 127.06 151.29 127.08 151.31 127.09 151.32 127.11"/>
          <polyline class="cls-12" points="151.28 127.04 85.43 234.38 85.39 234.4 85.36 234.42 85.33 234.44 85.3 234.46 151.24 126.96 151.25 126.98 151.27 127 151.27 127.02 151.28 127.04"/>
          <polyline class="cls-12" points="151.24 126.96 85.3 234.46 85.27 234.48 85.23 234.5 85.18 234.52 85.15 234.53 151.2 126.89 151.21 126.91 151.22 126.93 151.23 126.94 151.24 126.96"/>
          <polyline class="cls-14" points="151.2 126.89 85.15 234.53 85.12 234.55 85.09 234.57 85.06 234.59 85.02 234.61 151.15 126.81 151.17 126.83 151.18 126.85 151.19 126.87 151.2 126.89"/>
          <polyline class="cls-9" points="151.15 126.81 85.02 234.61 84.98 234.63 84.97 234.65 84.93 234.67 84.89 234.69 151.11 126.75 151.12 126.76 151.13 126.78 151.14 126.8 151.15 126.81"/>
          <polyline class="cls-34" points="151.11 126.75 84.89 234.69 84.86 234.71 84.82 234.73 84.79 234.75 84.75 234.77 151.06 126.68 151.07 126.7 151.09 126.72 151.1 126.73 151.11 126.75"/>
          <polyline class="cls-34" points="151.06 126.68 84.75 234.77 84.72 234.79 84.69 234.81 84.65 234.83 84.62 234.85 151.02 126.6 151.03 126.62 151.04 126.64 151.05 126.66 151.06 126.68"/>
          <polyline class="cls-31" points="151.02 126.6 84.62 234.85 84.59 234.86 84.56 234.88 84.52 234.9 84.49 234.92 150.98 126.53 150.99 126.54 151 126.56 151.02 126.58 151.02 126.6"/>
          <polyline class="cls-27" points="150.98 126.53 84.49 234.92 84.45 234.94 84.42 234.96 84.38 234.98 84.34 235 150.95 126.45 150.95 126.47 150.96 126.49 150.97 126.51 150.98 126.53"/>
          <polyline class="cls-33" points="150.95 126.45 84.34 235 84.23 235.08 84.11 235.15 83.99 235.21 83.87 235.29 150.79 126.2 150.83 126.26 150.87 126.33 150.91 126.4 150.95 126.45"/>
          <polyline class="cls-33" points="150.79 126.2 83.87 235.29 83.73 235.37 83.6 235.45 83.46 235.52 83.34 235.61 150.62 125.92 150.66 125.99 150.71 126.06 150.75 126.12 150.79 126.2"/>
          <polyline class="cls-10" points="150.62 125.92 83.34 235.61 83.2 235.69 83.06 235.77 82.94 235.85 82.8 235.92 150.46 125.64 150.5 125.71 150.54 125.78 150.59 125.85 150.62 125.92"/>
          <polyline class="cls-32" points="150.46 125.64 82.8 235.92 82.67 236.01 82.54 236.09 82.4 236.16 82.27 236.25 150.29 125.37 150.33 125.44 150.38 125.5 150.42 125.57 150.46 125.64"/>
          <polyline class="cls-5" points="150.29 125.37 82.27 236.25 82.14 236.33 82.01 236.41 81.88 236.49 81.74 236.57 150.13 125.1 150.17 125.16 150.22 125.23 150.25 125.3 150.29 125.37"/>
          <path class="cls-5" d="M150.13,125.1l-68.39,111.48c-.14.09-.27.16-.4.24-.14.09-.27.16-.4.25-.14.08-.26.16-.4.24-.14.09-.26.16-.4.25l69.49-113.26c.04.07.08.14.13.2.04.07.08.14.14.2.04.07.08.14.13.2.02.05.06.12.1.18"/>
          <path class="cls-16" d="M149.64,124.3l-69.49,113.26c-2.86,1.81-5.57,3.66-8.08,5.5s-4.8,3.69-6.86,5.47c-2.06,1.79-3.84,3.53-5.36,5.17s-2.71,3.19-3.58,4.61l4.22-6.89,4.25-6.91,4.25-6.94,4.27-6.97,4.29-6.99,4.29-7.01,4.31-7.02,4.32-7.03,4.32-7.05,4.33-7.06,4.34-7.07,4.34-7.07,4.35-7.08,4.36-7.09,4.35-7.09,4.36-7.09,4.34-7.09,4.35-7.08,4.35-7.08,4.39-7.07c.21-.35.54-.46.96-.34.42.12.94.48,1.54,1.05s1.29,1.37,2.05,2.37c.76,1,1.59,2.2,2.48,3.62"/>
        </g>
      </g>
      <g class="cls-4">
        <g class="cls-4">
          <path class="cls-30" d="M511,233.39l-71.1-105.38s.04-.07.05-.1c.02-.03.04-.07.06-.1,0-.03.03-.06.05-.1.02-.03.03-.06.05-.09l71.61,106.14c-.06-.03-.12-.07-.18-.1-.06-.03-.12-.07-.17-.1-.08-.03-.14-.07-.19-.1-.05-.03-.1-.06-.16-.09"/>
          <path class="cls-29" d="M511.69,233.77l-71.61-106.14s.05-.08.08-.12c.02-.04.04-.08.07-.12.02-.04.04-.08.06-.12.03-.04.05-.08.07-.12l72.25,107.1c-.08-.04-.16-.09-.22-.13-.08-.04-.15-.08-.2-.13-.08-.05-.16-.08-.22-.13-.1-.04-.17-.08-.26-.12"/>
          <path class="cls-1" d="M512.6,234.25l-72.25-107.1s.04-.08.07-.12c.02-.04.04-.08.06-.12.03-.04.05-.08.07-.12.03-.04.05-.08.08-.12l72.89,108.05c-.08-.04-.16-.08-.22-.13-.08-.04-.16-.08-.21-.13-.08-.04-.16-.08-.21-.12-.12-.04-.18-.08-.26-.12"/>
          <path class="cls-17" d="M513.5,234.74l-72.9-108.05s.03-.06.05-.09c0-.03.03-.06.05-.09s.03-.06.05-.09.03-.06.05-.09l73.38,108.79c-.07-.03-.13-.07-.18-.1s-.12-.06-.17-.1-.13-.06-.18-.1-.09-.06-.14-.1"/>
          <polyline class="cls-25" points="514.18 235.13 440.79 126.34 440.82 126.29 440.86 126.23 440.89 126.17 440.91 126.11 514.64 235.38 514.51 235.32 514.41 235.25 514.3 235.19 514.18 235.13"/>
          <polyline class="cls-18" points="514.64 235.38 440.91 126.11 440.94 126.06 440.98 126 441.02 125.94 441.05 125.89 515.09 235.64 514.98 235.57 514.86 235.5 514.74 235.45 514.64 235.38"/>
          <polyline class="cls-18" points="515.09 235.64 441.05 125.89 441.08 125.83 441.11 125.78 441.15 125.73 441.17 125.67 515.54 235.89 515.42 235.83 515.31 235.77 515.2 235.7 515.09 235.64"/>
          <polyline class="cls-7" points="515.54 235.89 441.17 125.67 441.2 125.61 441.24 125.55 441.26 125.5 441.29 125.45 515.98 236.16 515.88 236.09 515.76 236.02 515.65 235.96 515.54 235.89"/>
          <polyline class="cls-35" points="515.98 236.16 441.29 125.45 441.32 125.4 441.35 125.34 441.39 125.29 441.43 125.23 516.42 236.41 516.33 236.34 516.21 236.28 516.09 236.21 515.98 236.16"/>
          <polyline class="cls-15" points="516.42 236.41 441.43 125.23 441.46 125.17 441.49 125.12 441.52 125.07 441.56 125.02 516.87 236.67 516.76 236.6 516.66 236.53 516.53 236.48 516.42 236.41"/>
          <path class="cls-15" d="M516.87,236.67l-75.32-111.65s.03-.06.05-.1c.02-.03.04-.06.06-.09s.04-.06.06-.09.03-.06.05-.1l75.88,112.48c-.07-.04-.13-.08-.19-.12l-.2-.12-.2-.12s-.11-.08-.16-.11"/>
          <path class="cls-24" d="M517.64,237.12l-75.88-112.48s.05-.06.07-.09.04-.06.06-.09.03-.06.05-.09.04-.06.06-.09l76.43,113.29c-.06-.04-.13-.08-.19-.12l-.2-.12c-.07-.04-.14-.08-.19-.12-.07-.04-.13-.08-.19-.12"/>
          <path class="cls-21" d="M518.4,237.58l-76.43-113.29s.04-.06.06-.09.03-.06.05-.09c.02-.03.04-.06.06-.09s.05-.06.06-.09l76.99,114.11c-.07-.04-.13-.08-.2-.12-.07-.04-.13-.08-.19-.12s-.14-.08-.19-.12c-.07-.04-.13-.08-.19-.12"/>
          <path class="cls-12" d="M519.18,238.04l-76.99-114.11s.05-.07.07-.11c.02-.03.05-.07.07-.11s.04-.07.07-.11c.02-.04.04-.07.06-.11l77.65,115.1c-.08-.05-.16-.1-.21-.15s-.16-.1-.22-.15c-.07-.05-.16-.1-.22-.15-.12-.03-.19-.08-.26-.13"/>
          <path class="cls-12" d="M520.09,238.61l-77.65-115.11s.07-.1.1-.15.07-.1.1-.15.06-.1.1-.15c.03-.05.06-.1.09-.15l78.57,116.46c-.11-.07-.2-.14-.3-.2-.13-.07-.21-.14-.32-.2s-.2-.14-.32-.2c-.14-.04-.24-.1-.36-.16"/>
          <path class="cls-14" d="M521.36,239.41l-78.56-116.46s.07-.1.1-.16.07-.1.11-.16c.03-.05.07-.1.1-.15s.07-.1.1-.15l79.57,117.95c-.12-.08-.22-.15-.34-.22-.13-.07-.23-.15-.35-.21-.12-.08-.21-.15-.34-.22-.13-.08-.25-.15-.38-.22"/>
          <path class="cls-9" d="M522.76,240.29l-79.57-117.95c.05-.07.1-.14.14-.2.05-.07.11-.14.15-.2.05-.07.1-.14.14-.2.05-.06.09-.13.14-.19l80.98,120.02c-.16-.11-.31-.21-.49-.32-.16-.11-.31-.2-.49-.31-.16-.11-.32-.21-.49-.32-.18-.12-.35-.22-.5-.32"/>
          <path class="cls-34" d="M524.68,241.55l-80.97-120.02c.06-.09.14-.17.19-.26.06-.09.12-.17.17-.25.06-.09.13-.16.19-.24.06-.08.12-.16.17-.23l82.81,122.76c-.2-.15-.42-.29-.62-.44s-.42-.29-.62-.44-.43-.29-.63-.44c-.27-.15-.49-.29-.71-.44"/>
          <path class="cls-34" d="M527.23,243.3l-82.81-122.76c.09-.12.16-.23.24-.34.08-.11.16-.21.23-.32.09-.11.17-.2.23-.31s.16-.19.22-.29l85.44,126.62c-.29-.21-.59-.43-.87-.65-.29-.21-.6-.43-.89-.65-.29-.2-.6-.44-.91-.65-.28-.21-.57-.43-.88-.65"/>
          <path class="cls-31" d="M530.81,245.91l-85.44-126.62c.14-.15.23-.28.35-.41.13-.13.22-.25.34-.37.11-.12.2-.22.31-.32s.2-.19.31-.28l89.05,132c-.38-.33-.76-.65-1.15-.99-.4-.33-.8-.66-1.21-1-.41-.33-.83-.67-1.26-1-.41-.33-.84-.67-1.29-1.01"/>
          <path class="cls-27" d="M535.75,249.89l-89.05-132c.16-.14.3-.26.46-.36s.28-.17.42-.23c.14-.06.24-.09.37-.11.12-.02.2,0,.31.03l93.59,138.75c-.39-.47-.82-.95-1.27-1.45s-.94-.99-1.44-1.5c-.51-.5-1.04-1.02-1.62-1.55-.56-.53-1.16-1.04-1.77-1.58"/>
          <path class="cls-33" d="M541.85,255.99l-93.59-138.75s.07.02.11.04c.03.02.06.04.1.07.03.02.06.05.09.08s.06.07.08.11l4.77,7.07,4.77,7.08,4.78,7.09,4.78,7.08,4.78,7.09,4.77,7.08,4.78,7.09,4.77,7.08,4.77,7.07,4.76,7.06,4.75,7.05,4.74,7.04,4.73,7.02,4.73,7.01,9.42,13.95,9.35,13.86,4.65,6.89,4.65,6.86c-.12-.16-.22-.34-.35-.5-.13-.17-.24-.34-.38-.51s-.26-.35-.41-.52-.29-.33-.44-.5"/>
        </g>
      </g>
      <g class="cls-4">
        <g class="cls-4">
          <polyline class="cls-30" points="87.17 233.39 511 233.39 511.02 233.4 511.05 233.42 511.08 233.43 511.1 233.45 87.07 233.45 87.1 233.43 87.12 233.42 87.15 233.4 87.17 233.39"/>
          <polyline class="cls-29" points="87.07 233.45 511.1 233.45 511.13 233.46 511.15 233.48 511.19 233.5 511.22 233.52 86.94 233.52 86.98 233.5 87.01 233.48 87.04 233.46 87.07 233.45"/>
          <polyline class="cls-1" points="86.94 233.52 511.22 233.52 511.25 233.53 511.29 233.54 511.33 233.56 511.37 233.58 86.82 233.58 86.85 233.56 86.89 233.54 86.92 233.53 86.94 233.52"/>
          <polyline class="cls-17" points="86.82 233.58 511.37 233.58 511.4 233.6 511.44 233.62 511.47 233.64 511.5 233.66 86.69 233.66 86.72 233.64 86.75 233.62 86.78 233.6 86.82 233.58"/>
          <polyline class="cls-25" points="86.69 233.66 511.5 233.66 511.52 233.67 511.56 233.69 511.59 233.71 511.63 233.73 86.57 233.73 86.61 233.71 86.62 233.69 86.66 233.67 86.69 233.66"/>
          <polyline class="cls-18" points="86.57 233.73 511.63 233.73 511.65 233.75 511.69 233.76 511.73 233.78 511.77 233.8 86.44 233.8 86.47 233.78 86.51 233.76 86.54 233.75 86.57 233.73"/>
          <polyline class="cls-18" points="86.44 233.8 511.77 233.8 511.8 233.82 511.83 233.84 511.86 233.86 511.9 233.87 86.31 233.87 86.33 233.86 86.37 233.84 86.41 233.82 86.44 233.8"/>
          <polyline class="cls-7" points="86.31 233.87 511.9 233.87 511.92 233.88 511.96 233.9 511.99 233.92 512.03 233.94 86.19 233.94 86.22 233.92 86.25 233.9 86.29 233.88 86.31 233.87"/>
          <polyline class="cls-35" points="86.19 233.94 512.03 233.94 512.05 233.96 512.09 233.98 512.13 233.99 512.16 234.01 86.06 234.01 86.09 233.99 86.13 233.98 86.16 233.96 86.19 233.94"/>
          <polyline class="cls-15" points="86.06 234.01 512.16 234.01 512.19 234.03 512.23 234.05 512.26 234.07 512.3 234.09 85.94 234.09 85.96 234.07 85.98 234.05 86.03 234.03 86.06 234.01"/>
          <polyline class="cls-15" points="85.94 234.09 512.3 234.09 512.32 234.1 512.36 234.12 512.39 234.14 512.43 234.16 85.81 234.16 85.84 234.14 85.88 234.12 85.91 234.1 85.94 234.09"/>
          <polyline class="cls-24" points="85.81 234.16 512.43 234.16 512.45 234.18 512.48 234.2 512.52 234.21 512.56 234.23 85.68 234.23 85.71 234.21 85.75 234.2 85.78 234.18 85.81 234.16"/>
          <polyline class="cls-21" points="85.68 234.23 512.56 234.23 512.59 234.25 512.63 234.27 512.66 234.28 512.7 234.3 85.55 234.3 85.6 234.28 85.63 234.27 85.65 234.25 85.68 234.23"/>
          <polyline class="cls-12" points="85.55 234.3 512.7 234.3 512.73 234.32 512.76 234.34 512.78 234.35 512.81 234.37 85.43 234.37 85.46 234.35 85.5 234.34 85.53 234.32 85.55 234.3"/>
          <polyline class="cls-12" points="85.43 234.37 512.81 234.37 512.85 234.39 512.88 234.41 512.91 234.43 512.95 234.45 85.31 234.45 85.34 234.43 85.37 234.41 85.4 234.39 85.43 234.37"/>
          <polyline class="cls-14" points="85.31 234.45 512.95 234.45 512.99 234.47 513.02 234.48 513.06 234.5 513.09 234.52 85.18 234.52 85.22 234.5 85.25 234.48 85.28 234.47 85.31 234.45"/>
          <polyline class="cls-9" points="85.18 234.52 513.09 234.52 513.12 234.53 513.14 234.55 513.18 234.57 513.21 234.59 85.06 234.59 85.09 234.57 85.12 234.55 85.14 234.53 85.18 234.52"/>
          <polyline class="cls-34" points="85.06 234.59 513.21 234.59 513.25 234.61 513.27 234.63 513.31 234.65 513.35 234.66 84.94 234.66 84.97 234.65 84.99 234.63 85.02 234.61 85.06 234.59"/>
          <polyline class="cls-34" points="84.94 234.66 513.35 234.66 513.39 234.68 513.42 234.7 513.44 234.72 513.48 234.74 84.81 234.74 84.84 234.72 84.87 234.7 84.91 234.68 84.94 234.66"/>
          <polyline class="cls-31" points="84.81 234.74 513.48 234.74 513.51 234.75 513.54 234.77 513.57 234.79 513.61 234.81 84.68 234.81 84.71 234.79 84.74 234.77 84.77 234.75 84.81 234.74"/>
          <polyline class="cls-27" points="84.68 234.81 513.61 234.81 513.64 234.83 513.67 234.85 513.7 234.86 513.75 234.88 84.57 234.88 84.59 234.86 84.63 234.85 84.65 234.83 84.68 234.81"/>
          <polyline class="cls-33" points="84.57 234.88 513.75 234.88 513.77 234.89 513.8 234.91 513.84 234.93 513.87 234.95 84.43 234.95 84.47 234.93 84.5 234.91 84.53 234.89 84.57 234.88"/>
          <polyline class="cls-33" points="84.43 234.95 513.87 234.95 513.94 234.99 513.99 235.02 514.05 235.05 514.09 235.09 84.22 235.09 84.27 235.05 84.32 235.02 84.38 234.99 84.43 234.95"/>
          <path class="cls-10" d="M84.22,235.09h429.89c.07.03.13.06.17.1l.17.09s.12.06.17.1c.06.03.11.06.16.09H83.59s.11-.06.16-.09.11-.06.16-.1c.05-.03.12-.06.16-.09.05-.04.11-.07.16-.1"/>
          <path class="cls-32" d="M83.59,235.46h431.17c.06.03.12.06.16.1.07.03.13.06.18.09.05.03.1.06.16.09l.17.09H82.97s.11-.06.16-.09c.06-.03.12-.06.16-.1.05-.03.11-.06.16-.09.05-.03.09-.06.15-.09"/>
          <path class="cls-5" d="M82.97,235.83h432.44c.06.03.11.06.16.1.06.03.12.06.16.1.07.03.13.06.17.09.06.03.12.06.16.1H82.35c.06-.03.11-.06.16-.1.05-.03.11-.06.16-.09s.1-.07.16-.1c.04-.04.1-.07.14-.1"/>
          <path class="cls-5" d="M82.35,236.19h433.7c.06.03.13.06.17.09.06.03.12.07.16.1.06.03.12.06.16.1.07.03.13.06.17.1H81.75s.1-.06.16-.1c.06-.03.11-.06.16-.1.05-.03.11-.06.16-.09.03-.03.07-.07.12-.1"/>
          <path class="cls-16" d="M81.75,236.57h434.95c4.32,2.51,8.32,5.12,11.92,7.7,3.57,2.58,6.69,5.13,9.26,7.53s4.53,4.65,5.81,6.62c1.27,1.97,1.82,3.67,1.53,4.99H54.77c-.26-1.31.24-3.02,1.44-4.99,1.19-1.98,3.05-4.22,5.46-6.62,2.42-2.4,5.39-4.95,8.77-7.53,3.4-2.58,7.21-5.19,11.31-7.7"/>
        </g>
      </g>
    </g>
    <ellipse class="cls-2" cx="297.41" cy="175.09" rx="170.19" ry="70.99"/>
    <g class="cls-4">
      <path class="cls-6" d="M300.3,64.54c87.06,0,157.61,22.79,157.61,50.99s-70.55,50.91-157.61,50.91-157.54-22.79-157.54-50.91,70.55-50.99,157.54-50.99Z"/>
      <g class="cls-4">
        <g class="cls-4">
          <path class="cls-8" d="M457.92,115.53v67.74c0,.79-.06,1.56-.16,2.33v-67.74c.12-.77.16-1.54.16-2.33"/>
          <path class="cls-11" d="M457.76,117.87v67.74c-.14.97-.36,1.93-.65,2.88v-67.74c.29-.95.52-1.91.65-2.88"/>
          <path class="cls-19" d="M457.1,120.75v67.74c-.36,1.17-.86,2.34-1.47,3.48v-67.74c.61-1.14,1.11-2.31,1.47-3.48"/>
          <path class="cls-22" d="M455.63,124.23v67.74c-12.78,23.97-77.46,42.21-155.33,42.21-86.99,0-157.54-22.79-157.54-50.9v-67.74c0,28.11,70.55,50.91,157.54,50.91,77.87,0,142.54-18.25,155.33-42.22"/>
        </g>
      </g>
    </g>
    <g>
      <ellipse class="cls-26" cx="300.15" cy="121.04" rx="156.78" ry="64.41"/>
      <path class="cls-26" d="M300.14,27.5c87.04,0,155.93,55.5,156.79,91.07.86,35.58-67.99,37.18-156.79,37.19-88.77.02-157.64-1.61-156.78-37.19.86-35.57,69.76-91.06,156.78-91.07Z"/>
    </g>
  </g>
</svg>