<?xml version="1.0" encoding="UTF-8"?>
<svg id="Layer_1" data-name="Layer 1" xmlns="http://www.w3.org/2000/svg" width="600" height="600" viewBox="0 0 600 600">
  <defs>
    <style>
      .cls-1 {
        fill: none;
      }

      .cls-2, .cls-3, .cls-4 {
        isolation: isolate;
      }

      .cls-2, .cls-4 {
        opacity: .2;
      }

      .cls-5 {
        fill: #8f8f8f;
      }

      .cls-6 {
        fill: #a67c52;
      }

      .cls-7 {
        fill: #1e1e1e;
      }

      .cls-8 {
        fill: #ccc;
      }

      .cls-9 {
        fill: #303030;
      }

      .cls-10 {
        fill: #bcbcbc;
      }

      .cls-11 {
        fill: red;
      }

      .cls-12 {
        fill: #b3b3b3;
      }

      .cls-13 {
        fill: #424242;
      }

      .cls-14 {
        fill: #333;
      }

      .cls-15 {
        fill: #533e29;
      }

      .cls-16 {
        fill: #999;
      }

      .cls-4 {
        fill: #fff;
      }
    </style>
  </defs>
  <g id="breadboard">
    <g class="cls-3">
      <path class="cls-16" d="M300.91,322.55c-50.4,0-91.28,35.39-91.28,79.04s40.88,79.05,91.28,79.05,91.27-35.36,91.27-79.05-40.87-79.04-91.27-79.04"/>
    </g>
    <g id="breadboard-2" data-name="breadboard">
      <circle id="connector0pin" class="cls-1" cx="277.15" cy="550.37" r="13.01"/>
      <circle id="connector1pin" class="cls-1" cx="324.65" cy="550.37" r="13.01"/>
    </g>
    <path d="M392.18,399.95c0,43.7-40.88,79.05-91.27,79.05s-91.28-35.36-91.28-79.05v1.64c0,43.7,40.88,79.05,91.28,79.05s91.27-35.36,91.27-79.05v-1.64Z"/>
    <g>
      <path class="cls-14" d="M316.52,197.01l10.57-15.86c1.39-2.06,3.9-3.23,6.47-3.23,1.26,0,2.54.28,3.7.87l3.31,1.64c3.55,1.79,4.79,5.74,2.73,8.81l-10.52,15.78c11.02,8.08,18.04,20.13,18.04,33.6,0,24.29-22.77,44.01-50.81,44.01s-50.81-19.72-50.81-44.01c0-13.35,6.89-25.32,17.75-33.4l-10.59-15.89c-2.07-3.08-.89-7.07,2.72-8.81l3.25-1.69c1.18-.57,2.46-.84,3.73-.84,2.6,0,5.11,1.15,6.5,3.25l10.57,15.87c5.28-1.61,10.96-2.49,16.87-2.49,5.79,0,11.35.83,16.53,2.38M300,86.99c-96.19,0-174.39,67.78-174.39,151.02s78.2,151.08,174.39,151.08,174.39-67.79,174.39-151.08c0-83.25-78.26-151.02-174.39-151.02M300,409.54c-109.2,0-198.05-76.9-198.05-171.52s88.85-171.52,198.05-171.52,198.05,76.95,198.05,171.52-88.85,171.52-198.05,171.52M300,45.18c-122.98,0-222.66,86.32-222.66,192.83,0,106.51,99.68,192.89,222.66,192.89s222.66-86.37,222.66-192.88S422.99,45.18,300,45.18"/>
      <path class="cls-12" d="M300,389.1c-96.19,0-174.39-67.79-174.39-151.08s78.2-151.02,174.39-151.02,174.39,67.78,174.39,151.02c0,83.3-78.26,151.08-174.39,151.08ZM300,79.05c-101.22,0-183.62,71.32-183.62,158.97s82.4,159.02,183.62,159.02,183.63-71.32,183.63-159.02c0-87.66-82.41-158.97-183.63-158.97M300,401.59c-104.11,0-188.88-73.35-188.88-163.57s84.77-163.53,188.88-163.53,188.88,73.37,188.88,163.53c0,90.22-84.76,163.57-188.88,163.57M300,66.5c-109.2,0-198.05,76.95-198.05,171.52s88.85,171.52,198.05,171.52,198.05-76.9,198.05-171.52-88.85-171.52-198.05-171.52Z"/>
      <path class="cls-10" d="M300,397.04c-101.22,0-183.62-71.32-183.62-159.02s82.4-158.97,183.62-158.97,183.63,71.32,183.63,158.97c0,87.7-82.41,159.02-183.63,159.02M300,74.49c-104.11,0-188.88,73.37-188.88,163.53s84.77,163.57,188.88,163.57,188.88-73.35,188.88-163.57c0-90.16-84.76-163.53-188.88-163.53"/>
      <path class="cls-13" d="M333.57,177.92c-2.58,0-5.08,1.16-6.47,3.23l-10.57,15.86c6.01,1.79,11.51,4.54,16.26,8.02l10.52-15.78c2.06-3.08.82-7.02-2.73-8.81l-3.31-1.64c-1.17-.59-2.45-.87-3.71-.87"/>
      <path class="cls-13" d="M266.05,178c-1.26,0-2.55.28-3.73.84l-3.25,1.69c-3.61,1.74-4.79,5.74-2.72,8.81l10.59,15.89c4.73-3.52,10.2-6.29,16.2-8.12l-10.57-15.87c-1.4-2.1-3.91-3.25-6.51-3.25"/>
      <path class="cls-14" d="M300,278.08c-25.14,0-45.55-17.63-45.55-39.45s20.41-39.44,45.55-39.44,45.56,17.67,45.56,39.44-20.41,39.45-45.56,39.45M300,194.62c-5.92,0-11.59.88-16.87,2.49-5.99,1.83-11.47,4.61-16.2,8.12-10.86,8.08-17.75,20.05-17.75,33.4,0,24.29,22.77,44.01,50.81,44.01s50.81-19.72,50.81-44.01c0-13.47-7.01-25.53-18.04-33.6-4.75-3.48-10.25-6.22-16.26-8.02-5.17-1.54-10.73-2.39-16.52-2.39"/>
      <path d="M300,274.75c-20.35,0-37.21-12.6-40.94-29.26-.53-2.46,1.3-4.86,4.2-5.33.35-.07.7-.09,1.05-.09,2.44,0,4.59,1.52,5.11,3.68,2.72,12.45,15.38,21.87,30.58,21.87,11.18,0,20.94-5.07,26.44-12.76,1-1.4,2.73-2.18,4.5-2.18.95,0,1.91.22,2.78.68,2.48,1.33,3.19,4.15,1.66,6.3-7.34,10.26-20.47,17.07-35.38,17.07M276.28,228.07c-2.38,0-4.25-.64-5.21-1.99-2.6-3.48,1.48-10.09,9.23-14.6,4.48-2.6,9.25-3.95,12.96-3.95,2.7,0,4.84.71,5.91,2.16,2.54,3.43-2.01,9.69-9.82,14.19-4.66,2.71-9.46,4.19-13.07,4.19M300,199.19c-25.14,0-45.55,17.67-45.55,39.44s20.41,39.45,45.55,39.45,45.56-17.63,45.56-39.45-20.41-39.44-45.56-39.44"/>
      <path class="cls-9" d="M264.31,240.08c-.34,0-.69.03-1.05.09-2.9.46-4.73,2.87-4.2,5.33,3.73,16.66,20.59,29.26,40.94,29.26,14.91,0,28.04-6.82,35.38-17.06,1.53-2.16.83-4.97-1.66-6.3-.87-.46-1.83-.68-2.78-.68-1.77,0-3.5.77-4.5,2.18-5.5,7.68-15.26,12.76-26.44,12.76-15.2,0-27.86-9.43-30.58-21.87-.51-2.17-2.66-3.69-5.1-3.69"/>
      <path class="cls-5" d="M293.26,207.53c-3.71,0-8.47,1.34-12.96,3.95-7.75,4.51-11.83,11.11-9.23,14.6.96,1.35,2.83,1.99,5.21,1.99,3.61,0,8.41-1.47,13.07-4.19,7.81-4.51,12.36-10.76,9.82-14.19-1.07-1.45-3.21-2.16-5.92-2.16"/>
      <path class="cls-7" d="M413.47,36.53h-226.99c-52.12,21.98-94.47,58.66-119.85,103.84v196.57c25.38,45.14,67.73,81.81,119.85,103.84h226.99c52.18-22.03,94.52-58.71,119.9-103.84v-196.57c-25.38-45.19-67.73-81.86-119.9-103.84ZM470.31,85.46c4.26,0,7.62,2.97,7.62,6.66s-3.37,6.61-7.62,6.61-7.62-2.97-7.62-6.61,3.42-6.66,7.62-6.66ZM129.69,85.46c4.2,0,7.63,2.97,7.63,6.66s-3.43,6.61-7.63,6.61-7.69-2.97-7.69-6.61,3.43-6.66,7.69-6.66ZM129.69,393.76c-4.26,0-7.69-2.96-7.69-6.66s3.43-6.61,7.69-6.61,7.63,2.98,7.63,6.61-3.43,6.66-7.63,6.66ZM470.31,393.76c-4.2,0-7.62-2.96-7.62-6.66s3.42-6.61,7.62-6.61,7.62,2.98,7.62,6.61-3.37,6.66-7.62,6.66ZM300,430.9c-122.98,0-222.66-86.37-222.66-192.88S177.02,45.19,300,45.19s222.66,86.32,222.66,192.83-99.67,192.88-222.66,192.88Z"/>
    </g>
    <path d="M277.15,563.47c-5.45,0-9.86-4.42-9.86-9.86v-17.32c0-5.44,4.41-9.86,9.86-9.86s9.86,4.42,9.86,9.86v17.32c0,5.44-4.42,9.86-9.86,9.86Z"/>
    <path class="cls-11" d="M324.65,563.47c-5.44,0-9.86-4.42-9.86-9.86v-17.32c0-5.44,4.42-9.86,9.86-9.86s9.86,4.42,9.86,9.86v17.32c0,5.44-4.42,9.86-9.86,9.86Z"/>
    <rect class="cls-15" x="245.04" y="468.19" width="111.74" height="1.82"/>
    <path class="cls-6" d="M245.04,442.11v26.09h111.74v-26.09h-111.74ZM277.15,464.06c-4.33,0-7.84-3.34-7.84-7.45s3.51-7.47,7.84-7.47,7.84,3.34,7.84,7.47-3.51,7.45-7.84,7.45ZM324.65,464.06c-4.32,0-7.84-3.34-7.84-7.45s3.52-7.47,7.84-7.47,7.84,3.34,7.84,7.47c0,4.11-3.51,7.45-7.84,7.45Z"/>
    <path class="cls-4" d="M66.63,144.01c25.38-45.19,67.73-81.87,119.85-103.85h226.99c52.18,21.98,94.52,58.66,119.9,103.84v-3.63c-25.38-45.19-67.73-81.86-119.9-103.84h-226.99c-52.12,21.98-94.47,58.66-119.85,103.84v3.64Z"/>
    <path d="M533.37,344.33c-25.38,45.14-67.73,81.81-119.9,103.84h-226.99c-52.12-22.03-94.47-58.71-119.85-103.84v-7.39c25.38,45.14,67.73,81.81,119.85,103.84h226.99c52.18-22.03,94.52-58.71,119.9-103.84v7.39Z"/>
    <path d="M522.66,240.5c0,106.51-99.67,192.89-222.66,192.89s-222.66-86.39-222.66-192.89v-2.48c0,106.51,99.68,192.88,222.66,192.88s222.66-86.37,222.66-192.88v2.48Z"/>
    <path class="cls-4" d="M101.95,240.08c0-94.57,88.85-171.52,198.05-171.52s198.05,76.95,198.05,171.52v-2.06c0-94.57-88.85-171.52-198.05-171.52S101.95,143.45,101.95,238.02v2.06Z"/>
    <path class="cls-4" d="M125.61,234.73c0,83.3,78.2,151.08,174.39,151.08s174.39-67.79,174.39-151.08v3.29c0,83.3-78.26,151.08-174.39,151.08s-174.39-67.79-174.39-151.08v-3.29Z"/>
    <path class="cls-2" d="M474.39,241.29c0-83.25-78.26-151.02-174.39-151.02S125.61,158.05,125.61,241.29v-3.28c0-83.25,78.2-151.02,174.39-151.02s174.39,67.78,174.39,151.02"/>
    <path d="M498.05,241.7c0,94.62-88.85,171.52-198.05,171.52s-198.05-76.9-198.05-171.52v-3.69c0,94.62,88.85,171.52,198.05,171.52s198.05-76.9,198.05-171.52v3.69Z"/>
    <path class="cls-8" d="M277.15,449.22c-4.54,0-8.23,3.69-8.23,8.23s3.69,8.23,8.23,8.23,8.23-3.69,8.23-8.23-3.69-8.23-8.23-8.23ZM277.15,465.29c-4.33,0-7.84-3.52-7.84-7.84s3.51-7.84,7.84-7.84,7.84,3.52,7.84,7.84-3.51,7.84-7.84,7.84Z"/>
    <path class="cls-8" d="M324.65,449.22c-4.54,0-8.24,3.69-8.24,8.23s3.69,8.23,8.24,8.23,8.24-3.69,8.24-8.23-3.69-8.23-8.24-8.23ZM324.65,465.29c-4.32,0-7.84-3.52-7.84-7.84s3.52-7.84,7.84-7.84,7.84,3.52,7.84,7.84-3.51,7.84-7.84,7.84Z"/>
    <path d="M284.99,457.45c0-4.32-3.52-7.84-7.84-7.84s-7.83,3.52-7.84,7.84h-.05v78.86h15.77v-78.86h-.05Z"/>
    <path class="cls-11" d="M332.5,457.45c0-4.32-3.52-7.84-7.84-7.84s-7.83,3.52-7.84,7.84h-.05v78.86h15.77v-78.86h-.05Z"/>
    <polygon class="cls-2" points="371.22 451.98 230.6 451.98 227.15 448.18 374.67 448.18 371.22 451.98"/>
  </g>
</svg>