<?xml version="1.0" encoding="UTF-8"?>
<svg id="Layer_1" data-name="Layer 1" xmlns="http://www.w3.org/2000/svg" width="600" height="600" viewBox="0 0 600 600">
  <defs>
    <style>
      .cls-1 {
        fill: none;
      }

      .cls-2 {
        fill: #141414;
      }

      .cls-3 {
        fill: #242424;
      }

      .cls-4 {
        fill: #1f1f1f;
      }

      .cls-5 {
        fill: #8c8c8c;
      }

      .cls-6 {
        fill: #1a1a1a;
      }

      .cls-7 {
        fill: #999;
      }
    </style>
  </defs>
  <g id="breadboard">
    <rect id="connector0pin" class="cls-1" x="127.79" y="497.96" width="44.31" height="20.52"/>
    <rect id="connector1pin" class="cls-1" x="275.11" y="497.96" width="44.31" height="20.52"/>
    <rect id="connector2pin" class="cls-1" x="422.54" y="497.96" width="44.31" height="20.52"/>
    <rect id="rect9506" class="cls-5" x="275.05" y="347.17" width="44.19" height="191.84"/>
    <path id="path9510" class="cls-5" d="M195.23,347.17v68.03c0,8.7-16.04,21.73-24.58,29.23-21.03,18.28-42.84,37.32-42.84,61.38v33.21h44.19v-24.82c0-10.61,18.55-28.5,27.7-36.29,20.45-17.85,39.9-34.67,39.9-56.4v-74.37h-44.38v.02Z"/>
    <path id="path9514" class="cls-5" d="M399.03,347.17v68.03c0,8.7,16.02,21.73,24.6,29.23,21.07,18.28,42.86,37.32,42.86,61.38v33.21h-44.19v-24.82c0-10.61-18.55-28.5-27.7-36.29-20.47-17.85-39.9-34.67-39.9-56.4v-74.37h44.33v.02Z"/>
    <rect id="rect9553" class="cls-6" x="160.92" y="140.54" width="272.41" height="206.59"/>
    <path id="path9555" class="cls-2" d="M412.73,140.54v256.92c12.97-14.63,20.6-31.86,20.6-50.33h0v-206.59s-20.6,0-20.6,0Z"/>
    <path id="path9557" class="cls-3" d="M181.56,140.54h-20.62v206.59h0c0,18.44,7.65,35.7,20.62,50.33V140.54Z"/>
    <path id="path9559" class="cls-4" d="M160.92,140.54h0c0,18.44,7.65,35.7,20.62,50.33h231.33c12.97-14.63,20.62-31.88,20.62-50.33H160.92Z"/>
    <path id="path9561" class="cls-2" d="M297.15,44.95c-75.25,0-136.22,42.8-136.22,95.62h272.41c0-52.83-60.93-95.62-136.18-95.62Z"/>
    <rect id="rect9563" x="181.56" y="190.86" width="231.33" height="206.59"/>
    <path class="cls-7" d="M230.16,339.54v-110.78h44.31v22.14h22.16v22.16h22.18v-44.31h44.29v110.78h-44.27v-22.14h-22.18s0-22.16,0-22.16h-22.16v44.33h-44.33v-.02Z"/>
  </g>
</svg>